<svg xmlns="http://www.w3.org/2000/svg" enable-background="new 0 0 100 100"  width="25px" height="54px" viewBox="0 0 100 125" x="0px" y="0px"><path d="m88.1 62.9c-1.6-4.4-2.3-6.7 0-9.7 1.4-1.7 1.1-4.3-.7-5.6-1.7-1.4-4.3-1.1-5.6.7-5.3 6.7-2.9 12.9-1.2 17.4 1.8 4.7 2.9 7.9-1.3 12.6-2 2.2-5.1 3.2-8.6 3.5 3.7-7.2 4.7-19.3 3.7-31.9h2.3c2.2 0 4-1.8 4-4s-1.8-4-4-4h-3.1c-.1-.6-.2-1.2-.3-1.8h3.4c2.2 0 4-1.8 4-4s-1.8-4-4-4h-4.9c-1.6-7.4-3.9-14-6.5-18.7-1.4-2.5-3.9-4-6.8-4.1-.1 0-.1 0-.2 0-2.7 0-5.3 1.4-6.7 3.7l-4.4 7h-5.6l-3.7-6.6c-1.4-2.5-4.1-4.1-7-4.1-.1 0-.1 0-.2 0-3 .1-5.6 1.8-7 4.4-2.3 4.8-4.3 11.3-5.7 18.4h-5.4c-2.2 0-4 1.8-4 4s1.8 4 4 4h4.1c-.1.6-.2 1.2-.2 1.8h-3.8c-2.2 0-4 1.8-4 4s1.8 4 4 4h3.1c-.9 13.8.3 27.2 4.4 33.8 3.4 5.5 8 6.3 10.5 6.3h27.9c.4 0 .8 0 1.3-.1h2.1 3.5c6.9 0 14.6-.7 19.8-6.4 7.4-8.2 4.8-15.4 2.8-20.6zm-64.3-13h1.9c2.2 0 4-1.8 4-4s-1.8-4-4-4h-1.1c.1-.6.2-1.2.2-1.8h.9c2.2 0 4-1.8 4-4 0-2-1.5-3.7-3.5-4 1.2-5.8 2.8-11 4.7-14.9l6 10.7h14.6l6.8-10.7c2.2 3.8 4 9 5.3 14.8-2.2 0-4 1.8-4 4s1.8 4 4 4h1.6c.1.6.2 1.2.3 1.8h-1.9c-2.2 0-4 1.8-4 4s1.8 4 4 4h2.7c1.2 15.9-.7 30.9-7 32-.2 0-.4 0-.6 0-.3 0-.5 0-.8.1h-27.2c-6.1.1-8-15.4-6.9-32z"/><circle cx="38.4" cy="34.9" r="4"/><circle cx="49.9" cy="34.9" r="4"/></svg>